<svg xmlns="http://www.w3.org/2000/svg" viewBox="0 0 62.06 102.46"><defs><style>.cls-1{fill:#67bb89;}</style></defs><title>Asset 2</title><g id="Layer_2" data-name="Layer 2"><g id="Layer_1-2" data-name="Layer 1"><path class="cls-1" d="M1.25,98.64h0v3.68H0V92.55H2A2.09,2.09,0,0,1,4.2,94.93v1.34a2.09,2.09,0,0,1-1.65,2.31l2,3.73H3.18Zm0-4.9v3.72h.7c.67,0,1.08-.36,1.08-1.23V95c0-.87-.41-1.23-1.08-1.23Z"/><path class="cls-1" d="M8.06,92.55H12v1.18H9.27v3h2.45V98H9.27v3.18H12.1v1.18h-4Z"/><path class="cls-1" d="M19.82,95.37H18.66V95c0-1-.44-1.38-1-1.38s-1,.44-1,1.2c0,1,.58,1.48,1.34,2,1.14.76,2,1.44,2,3.09,0,1.48-.67,2.61-2.27,2.61-1.28,0-2.31-.67-2.31-2.79v-.38h1.2v.38c0,1.2.4,1.67,1.13,1.67s1.05-.48,1.05-1.38a2.42,2.42,0,0,0-1.48-2.15,3.2,3.2,0,0,1-1.78-2.94,2.14,2.14,0,0,1,2.12-2.44c1.34,0,2.14.76,2.14,2.54Z"/><path class="cls-1" d="M23.59,99.81V95.06a2.51,2.51,0,1,1,5,0v4.75a2.51,2.51,0,1,1-5,0Zm3.78,0V95.1c0-1.05-.58-1.52-1.27-1.52s-1.28.46-1.28,1.52v4.66c0,1.05.56,1.53,1.27,1.53S27.36,100.82,27.36,99.76Z"/><path class="cls-1" d="M35.74,96.07V94.93c0-.94-.44-1.35-1.07-1.35S33.53,94,33.53,95v4.77c0,1,.48,1.47,1.11,1.47s1.1-.43,1.1-1.37V99H37v1a2.22,2.22,0,0,1-2.29,2.48,2.31,2.31,0,0,1-2.37-2.62V95a2.3,2.3,0,0,1,2.37-2.61A2.2,2.2,0,0,1,37,94.87v1.2Z"/><path class="cls-1" d="M40.61,99.81V95.06a2.51,2.51,0,1,1,5,0v4.75a2.51,2.51,0,1,1-5,0Zm3.78,0V95.1c0-1.05-.58-1.52-1.27-1.52s-1.28.46-1.28,1.52v4.66c0,1.05.56,1.53,1.27,1.53S44.39,100.82,44.39,99.76Z"/><path class="cls-1" d="M49.43,92.55h2.32a2.35,2.35,0,0,1,2.42,2.62v4.5a2.36,2.36,0,0,1-2.44,2.64H49.43Zm1.23,1.18v7.4h1A1.27,1.27,0,0,0,53,99.68V95.19c0-1-.57-1.45-1.25-1.45Z"/><path class="cls-1" d="M58,92.55H62v1.18H59.24v3h2.45V98H59.24v3.18h2.82v1.18H58Z"/><path class="cls-1" d="M20.08,85.82v3.43m7.14,0H61.87L44.12,62.48A32.53,32.53,0,0,0,62,33.44v-.92A32.56,32.56,0,0,0,29.52,0H0V89.25H20.08V78.16ZM16.65,85.82H3.43V52.28L16.65,72.83Zm12.44,0L3.43,45.94V30.34L40.56,85.82Zm26.39,0H44.69L3.43,24.17V7.4ZM42.19,59.59,4.91,3.43H29.52A29.12,29.12,0,0,1,58.61,32.52v.92A29.09,29.09,0,0,1,42.19,59.59Z"/></g></g></svg>