<svg id="Layer_1" data-name="Layer 1" xmlns="http://www.w3.org/2000/svg" viewBox="8 8 63 104"><defs><style>.cls-1{fill:#67bb89;}</style></defs><title>Artboard 1svg</title><path class="cls-1" d="M9.78,107.23h0v3.68H8.52v-9.76h2a2.09,2.09,0,0,1,2.18,2.38v1.34a2.09,2.09,0,0,1-1.65,2.31l2,3.73H11.7Zm0-4.9V106h.7c.67,0,1.08-.36,1.08-1.23v-1.27c0-.87-.41-1.23-1.08-1.23Z"/><path class="cls-1" d="M16.58,101.14h3.93v1.18H17.79v3h2.45v1.2H17.79v3.18h2.82v1.18h-4Z"/><path class="cls-1" d="M28.34,104H27.18v-.41c0-1-.44-1.38-1-1.38s-1,.44-1,1.2c0,1,.58,1.48,1.34,2,1.14.76,2,1.44,2,3.09,0,1.48-.67,2.61-2.27,2.61C25,111,24,110.38,24,108.26v-.38h1.2v.38c0,1.2.4,1.67,1.13,1.67s1.05-.48,1.05-1.38a2.42,2.42,0,0,0-1.48-2.15,3.2,3.2,0,0,1-1.78-2.94A2.14,2.14,0,0,1,26.2,101c1.34,0,2.14.76,2.14,2.54Z"/><path class="cls-1" d="M32.11,108.4v-4.75a2.51,2.51,0,1,1,5,0v4.75a2.51,2.51,0,1,1-5,0Zm3.78,0V103.7c0-1.05-.58-1.52-1.27-1.52s-1.28.46-1.28,1.52v4.66c0,1.05.56,1.53,1.27,1.53S35.89,109.41,35.89,108.36Z"/><path class="cls-1" d="M44.26,104.66v-1.14c0-.94-.44-1.35-1.07-1.35s-1.14.44-1.14,1.47v4.77c0,1,.48,1.47,1.11,1.47s1.1-.43,1.1-1.37v-1h1.23v1A2.22,2.22,0,0,1,43.19,111a2.31,2.31,0,0,1-2.37-2.62v-4.82A2.3,2.3,0,0,1,43.19,101a2.2,2.2,0,0,1,2.29,2.47v1.2Z"/><path class="cls-1" d="M49.13,108.4v-4.75a2.51,2.51,0,1,1,5,0v4.75a2.51,2.51,0,1,1-5,0Zm3.78,0V103.7c0-1.05-.58-1.52-1.27-1.52s-1.28.46-1.28,1.52v4.66c0,1.05.56,1.53,1.27,1.53S52.91,109.41,52.91,108.36Z"/><path class="cls-1" d="M57.95,101.14h2.32a2.35,2.35,0,0,1,2.42,2.62v4.5a2.36,2.36,0,0,1-2.44,2.64H57.95Zm1.23,1.18v7.4h1a1.27,1.27,0,0,0,1.28-1.45v-4.49c0-1-.57-1.45-1.25-1.45Z"/><path class="cls-1" d="M66.55,101.14h3.93v1.18H67.76v3h2.45v1.2H67.76v3.18h2.82v1.18h-4Z"/><path class="cls-1" d="M28.6,94.42v3.43m7.14,0H70.39L52.64,71.07A32.53,32.53,0,0,0,70.57,42v-.92A32.56,32.56,0,0,0,38,8.59H8.52V97.85H28.6V86.75ZM25.17,94.42H12V60.87L25.17,81.42Zm12.44,0L12,54.53V38.93L49.08,94.42Zm26.39,0H53.21L12,32.76V16ZM50.71,68.18,13.43,12H38A29.12,29.12,0,0,1,67.13,41.11V42A29.09,29.09,0,0,1,50.71,68.18Z"/></svg>
